Motion_kv05_j
version=1
nRows=13
nColumns=43
inDegrees=yes
endheader
time	pelvis_tilt	pelvis_list	pelvis_rotation	pelvis_tx	pelvis_ty	pelvis_tz	hip_flexion_r	hip_adduction_r	hip_rotation_r	knee_angle_r	ankle_angle_r	subtalar_angle_r	mtp_angle_r	hip_flexion_l	hip_adduction_l	hip_rotation_l	knee_angle_l	ankle_angle_l	subtalar_angle_l	mtp_angle_l	lumbar_extension	lumbar_bending	lumbar_rotation	neck_flexion	neck_lateral_bending	neck_rotation	arm_flex_r	arm_add_r	arm_rot_r	elbow_flex_r	pro_sup_r	wrist_flex_r	wrist_dev_r	hand_finger_flex_r	arm_flex_l	arm_add_l	arm_rot_l	elbow_flex_l	pro_sup_l	wrist_flex_l	wrist_dev_l	hand_finger_flex_l
      2.33000000	      0.85714899	     28.84895675	    -90.81218586	     -0.05328031	      0.69229584	      0.08854094	     83.45096785	     -5.99974591	      0.01145819	    -90.65662869	     24.02958419	     -6.98454807	      9.70051362	     81.87262758	     -9.63370955	      3.53071905	    -91.13695379	     20.72442083	     14.36443857	     29.71912739	    -35.46873890	     -2.96769531	      6.56223374	     59.99999993	     -4.09613056	    -10.46322387	    142.84245971	    -24.66300887	     20.53245958	     48.68978480	    152.83841778	     12.79453099	    -12.26158380	     69.42859899	    145.97701247	    -14.60609298	     28.50770909	     31.44580070	    138.65156181	      0.80437711	    -12.94225239	     68.22748876
      2.33250000	      0.85384574	     28.82583178	    -90.82695395	     -0.05324297	      0.69161867	      0.08831903	     83.44426288	     -5.94742726	     -0.01936691	    -90.67700759	     24.03968931	     -6.98892717	      9.69669962	     81.86155720	     -9.57671086	      3.51764357	    -91.16852733	     20.73139380	     14.36335403	     29.71572177	    -35.43751429	     -2.97231458	      6.54894909	     59.99999993	     -4.09112311	    -10.46480479	    142.83789528	    -24.62052934	     20.54235586	     48.67121923	    152.83900960	     12.79813262	    -12.26153946	     69.42958284	    145.97131682	    -14.57432773	     28.50913549	     31.45037475	    138.65666932	      0.80243823	    -12.94262898	     68.22635172
      2.33500000	      0.83817116	     28.74382988	    -90.88531816	     -0.05319653	      0.69016951	      0.08841085	     83.45859835	     -5.78835193	     -0.02848128	    -90.89364713	     24.56083594	     -7.58083166	      9.42030585	     81.87513113	     -9.41528348	      3.67541296	    -91.49908064	     21.29888943	     13.74998948	     29.49019950	    -35.33745607	     -2.93308368	      6.50661512	     59.99999993	     -4.09709814	    -10.31157632	    142.73537192	    -24.31123628	     20.40738515	     48.31984116	    152.91286786	     12.76626842	    -12.19286278	     69.46212116	    145.86829527	    -14.55136194	     28.27797681	     31.25751585	    139.06168107	      0.54865166	    -12.78838954	     68.11801727
      2.33750000	      0.83776632	     28.70172332	    -90.90118721	     -0.05329535	      0.68957019	      0.08830471	     83.44474312	     -5.70246881	     -0.07076229	    -90.93007420	     24.56283314	     -7.59708666	      9.40612682	     81.84783734	     -9.32181436	      3.67370719	    -91.56573553	     21.30648529	     13.72652311	     29.47917181	    -35.30158934	     -2.94356288	      6.48917992	     59.99999993	     -4.09762609	    -10.30379715	    142.67903959	    -24.27846703	     20.43046981	     48.29919629	    152.91740114	     12.77000042	    -12.19313640	     69.46315967	    145.82055211	    -14.50901620	     28.28497505	     31.26015804	    139.07882428	      0.54318648	    -12.78823221	     68.11381518
      2.34000000	      0.72983597	     28.51546410	    -90.90431141	     -0.05313449	      0.68886610	      0.08894849	     83.22756988	     -5.54245096	     -0.19113190	    -91.04710193	     24.85033937	     -8.59887405	      8.86824218	     81.66219911	     -9.15013443	      3.84514015	    -91.80638355	     21.83608002	     12.40837045	     29.05033716	    -35.27360045	     -2.86375215	      6.49518289	     59.99999993	     -3.99672041	     -9.95796708	    142.31517581	    -24.16708453	     20.23380788	     48.31557101	    153.05967141	     12.61488884	    -12.12125732	     69.45543366	    145.46145904	    -14.48841912	     27.96329116	     31.35845552	    139.72247441	      0.10506965	    -12.61807975	     67.91479614
      2.34250000	      0.72391646	     28.49881534	    -90.91985691	     -0.05299179	      0.68849282	      0.08891069	     83.21045478	     -5.47375260	     -0.23169331	    -91.06222666	     24.84567371	     -8.60086337	      8.86102032	     81.63106976	     -9.08391977	      3.82253581	    -91.83779802	     21.83084578	     12.40441865	     29.04428113	    -35.23226730	     -2.86082083	      6.47191588	     59.99999993	     -3.99889334	     -9.95662543	    142.29430492	    -24.15982861	     20.24500751	     48.30160959	    153.06176482	     12.61784489	    -12.12179244	     69.45537925	    145.43948654	    -14.47117618	     27.96595734	     31.35859161	    139.72996993	      0.10512075	    -12.61832808	     67.91378033
      2.34500000	      0.63338814	     28.22956517	    -90.90414602	     -0.05296585	      0.68828440	      0.08985906	     82.85285100	     -5.32266441	     -0.39328944	    -91.11836336	     25.01786940	     -9.67674464	      8.17943328	     81.30689152	     -8.87826940	      3.95275249	    -92.01159022	     22.16041104	     11.04244988	     28.47827487	    -35.27845626	     -2.78174541	      6.45269503	     59.99999993	     -3.92938612	     -9.71046862	    141.79462594	    -24.08031310	     20.04244072	     48.40988565	    153.14815575	     12.46145766	    -12.13059486	     69.38684103	    144.94259270	    -14.49014427	     27.55193441	     31.65373736	    140.40564946	     -0.14721985	    -12.52267239	     67.81235189
      2.34750000	      0.64366721	     28.15995353	    -90.94502405	     -0.05286543	      0.68788294	      0.09026369	     82.78199232	     -5.24779284	     -0.40404488	    -91.18726341	     25.00560191	     -9.72638775	      8.11990531	     81.21781564	     -8.77262109	      4.00811485	    -92.13057273	     22.15405931	     10.98121199	     28.42878391	    -35.19690986	     -2.78187678	      6.43262462	     59.99999993	     -3.93310203	     -9.70280293	    141.60167033	    -24.05991079	     20.11161192	     48.35295054	    153.15563673	     12.47626927	    -12.14163372	     69.38174510	    144.77703050	    -14.49770866	     27.54577968	     31.60350829	    140.46576645	     -0.12870815	    -12.51403240	     67.81567893
      2.35000000	      0.56945321	     27.99693572	    -90.86180253	     -0.05225101	      0.68795580	      0.09091920	     82.51631057	     -5.18980109	     -0.58705423	    -91.18553727	     25.55035604	    -10.86354024	      3.16967295	     80.98532737	     -8.43718658	      4.05434338	    -92.26267699	     22.69727456	      9.76624402	     24.17254605	    -35.20955495	     -2.63050235	      6.57270210	     59.99999993	     -4.11179565	     -9.66056821	    141.47657945	    -24.20794655	     20.37397133	     48.43438533	    153.49904901	     12.39458139	    -12.50800824	     68.90969838	    143.78176657	    -13.91643752	     24.04004869	     32.30967484	    144.54585278	      0.86681411	    -12.48735458	     68.05685000
      2.35250000	      0.43651035	     27.81357116	    -90.89495641	     -0.05243287	      0.68826172	      0.09190017	     82.18229006	     -5.01241382	     -0.78948539	    -91.14022732	     25.65656035	    -10.99287823	      3.03947704	     80.67140023	     -8.45158147	      4.13297186	    -92.27131860	     22.95141526	      9.28294313	     24.07643461	    -35.22811991	     -2.56269862	      6.57459294	     59.99999993	     -4.01055956	     -9.50354428	    140.95540780	    -24.13792091	     20.01467262	     48.65094639	    153.30753402	     12.39399958	    -12.49425925	     68.91520693	    143.42697114	    -14.08338129	     23.96104782	     32.57421261	    144.51997178	      0.86661349	    -12.70121764	     67.94559853
      2.35500000	      0.44524681	     27.75527685	    -90.94573345	     -0.05231530	      0.68823063	      0.09256671	     82.06404571	     -4.94247792	     -0.83207081	    -91.14030862	     25.67636880	    -11.05833326	      3.02145262	     80.54340289	     -8.35448927	      4.16082480	    -92.33886041	     22.96316558	      9.20417315	     24.06179757	    -35.11950353	     -2.55063935	      6.55167618	     59.99999993	     -4.01848815	     -9.48611358	    140.66867471	    -24.12820379	     20.11550844	     48.64589489	    153.29424930	     12.41327089	    -12.51247212	     68.91216368	    143.21252259	    -14.12766980	     23.99249587	     32.51663658	    144.53839776	      0.89362627	    -12.70825992	     67.94399528
      2.35750000	      0.32038309	     27.49325464	    -90.93018737	     -0.05221145	      0.68902431	      0.09392283	     81.54217533	     -4.80366834	     -1.09052005	    -90.97814262	     25.92265993	    -11.97685291	      2.77271502	     80.07697854	     -8.23447225	      4.17403671	    -92.30746593	     23.24586610	      8.00015866	     23.86095616	    -35.22239040	     -2.45918396	      6.57213789	     59.99999993	     -3.84022537	     -9.30318781	    140.11834157	    -24.22114729	     19.92529859	     49.04195292	    153.15405661	     12.27666492	    -12.51079292	     68.81807430	    142.64576072	    -14.35837511	     23.86881625	     33.15769407	    144.61988154	      0.90982197	    -12.82240236	     67.94214430
      2.36000000	      0.33007050	     27.43481033	    -90.97815977	     -0.05218826	      0.68919775	      0.09477033	     81.39725308	     -4.73030143	     -1.14235152	    -90.96018639	     25.90249213	    -12.04177765	      2.74194661	     79.92693178	     -8.13518091	      4.20360193	    -92.35842112	     23.22941947	      7.91053413	     23.83667045	    -35.09837546	     -2.45284202	      6.54279931	     59.99999993	     -3.89100242	     -9.27938552	    139.77275865	    -24.23396797	     20.04105892	     49.05691582	    153.13514637	     12.29293872	    -12.53669237	     68.81130199	    142.39641304	    -14.39533485	     23.90204536	     33.09516688	    144.64498296	      0.94559014	    -12.81785131	     67.95087164
